<svg xmlns="http://www.w3.org/2000/svg" viewBox="0 0 128 128" fill="none">
  <defs>
    <linearGradient id="g" x1="20" y1="16" x2="108" y2="112" gradientUnits="userSpaceOnUse">
      <stop stop-color="#ff2d92"/>
      <stop offset="0.5" stop-color="#d946ef"/>
      <stop offset="1" stop-color="#8b5cf6"/>
    </linearGradient>
    <filter id="glow" x="-20%" y="-20%" width="140%" height="140%">
      <feGaussianBlur stdDeviation="4" result="b"/>
      <feMerge>
        <feMergeNode in="b"/>
        <feMergeNode in="SourceGraphic"/>
      </feMerge>
    </filter>
  </defs>
  <rect width="128" height="128" rx="28" fill="#050508"/>
  <rect x="8" y="8" width="112" height="112" rx="24" stroke="url(#g)" stroke-width="2" opacity="0.5"/>
  <g filter="url(#glow)">
    <path fill="url(#g)" d="M40 44V36a8 8 0 0 1 8-8h32a8 8 0 0 1 8 8v8h10l4 44H36l4-44h0Zm8-8h32v8H48v-8Zm-2 16h36l-3 32H43l-3-32Z"/>
    <circle cx="52" cy="92" r="5" fill="#22d3ee"/>
    <circle cx="76" cy="92" r="5" fill="#22d3ee"/>
  </g>
</svg>